<svg xmlns="http://www.w3.org/2000/svg" xmlns:xlink="http://www.w3.org/1999/xlink" width="500" zoomAndPan="magnify" viewBox="0 0 375 112.499997" height="150" preserveAspectRatio="xMidYMid meet" version="1.0"><defs><g/><clipPath id="2867bea0eb"><path d="M 347.085938 3.335938 L 370.980469 3.335938 L 370.980469 27.230469 L 347.085938 27.230469 Z M 347.085938 3.335938 " clip-rule="nonzero"/></clipPath></defs><g fill="#ffffff" fill-opacity="1"><g transform="translate(0.829651, 83.187071)"><g><path d="M 27.125 1.515625 C 23.726562 1.515625 20.582031 0.832031 17.6875 -0.53125 C 14.789062 -1.90625 12.269531 -3.816406 10.125 -6.265625 C 7.988281 -8.722656 6.332031 -11.570312 5.15625 -14.8125 C 3.976562 -18.050781 3.390625 -21.519531 3.390625 -25.21875 C 3.390625 -28.914062 3.984375 -32.375 5.171875 -35.59375 C 6.367188 -38.8125 8.035156 -41.644531 10.171875 -44.09375 C 12.316406 -46.550781 14.828125 -48.472656 17.703125 -49.859375 C 20.585938 -51.253906 23.710938 -51.953125 27.078125 -51.953125 C 31.203125 -51.953125 34.863281 -51.0625 38.0625 -49.28125 C 41.269531 -47.5 43.675781 -45.035156 45.28125 -41.890625 L 45.28125 -50.4375 L 56.5625 -50.4375 L 56.5625 0 L 45.28125 0 L 45.28125 -8.484375 C 43.644531 -5.347656 41.234375 -2.894531 38.046875 -1.125 C 34.859375 0.632812 31.21875 1.515625 27.125 1.515625 Z M 29.96875 -9.46875 C 32.03125 -9.46875 33.957031 -9.867188 35.75 -10.671875 C 37.550781 -11.472656 39.128906 -12.582031 40.484375 -14 C 41.847656 -15.425781 42.90625 -17.09375 43.65625 -19 C 44.40625 -20.914062 44.78125 -22.988281 44.78125 -25.21875 C 44.78125 -27.40625 44.394531 -29.453125 43.625 -31.359375 C 42.863281 -33.273438 41.8125 -34.953125 40.46875 -36.390625 C 39.125 -37.835938 37.550781 -38.960938 35.75 -39.765625 C 33.957031 -40.566406 32.03125 -40.96875 29.96875 -40.96875 C 27.257812 -40.96875 24.785156 -40.3125 22.546875 -39 C 20.304688 -37.6875 18.515625 -35.851562 17.171875 -33.5 C 15.828125 -31.144531 15.15625 -28.382812 15.15625 -25.21875 C 15.15625 -21.945312 15.832031 -19.132812 17.1875 -16.78125 C 18.550781 -14.425781 20.359375 -12.617188 22.609375 -11.359375 C 24.867188 -10.097656 27.320312 -9.46875 29.96875 -9.46875 Z M 29.96875 -9.46875 "/></g></g></g><g fill="#ffffff" fill-opacity="1"><g transform="translate(64.355252, 83.187071)"><g><path d="M 18.84375 0 L 6.96875 0 L 6.96875 -69.125 L 18.84375 -69.125 Z M 18.84375 0 "/></g></g></g><g fill="#ffffff" fill-opacity="1"><g transform="translate(90.108878, 83.187071)"><g><path d="M 54.9375 -26.09375 C 54.9375 -25.476562 54.921875 -24.890625 54.890625 -24.328125 C 54.859375 -23.773438 54.796875 -23.023438 54.703125 -22.078125 L 15.3125 -22.078125 C 15.726562 -19.328125 16.597656 -16.988281 17.921875 -15.0625 C 19.253906 -13.132812 20.898438 -11.65625 22.859375 -10.625 C 24.816406 -9.59375 26.957031 -9.078125 29.28125 -9.078125 C 32.289062 -9.078125 34.726562 -9.671875 36.59375 -10.859375 C 38.457031 -12.054688 39.816406 -13.71875 40.671875 -15.84375 L 53.625 -15.84375 C 53 -13.582031 51.972656 -11.40625 50.546875 -9.3125 C 49.128906 -7.226562 47.390625 -5.375 45.328125 -3.75 C 43.265625 -2.132812 40.898438 -0.851562 38.234375 0.09375 C 35.566406 1.039062 32.664062 1.515625 29.53125 1.515625 C 25.738281 1.515625 22.25 0.820312 19.0625 -0.5625 C 15.875 -1.957031 13.109375 -3.878906 10.765625 -6.328125 C 8.429688 -8.773438 6.617188 -11.617188 5.328125 -14.859375 C 4.035156 -18.097656 3.390625 -21.550781 3.390625 -25.21875 C 3.390625 -28.914062 4.035156 -32.375 5.328125 -35.59375 C 6.617188 -38.8125 8.429688 -41.644531 10.765625 -44.09375 C 13.109375 -46.550781 15.875 -48.472656 19.0625 -49.859375 C 22.25 -51.253906 25.738281 -51.953125 29.53125 -51.953125 C 33.320312 -51.953125 36.78125 -51.265625 39.90625 -49.890625 C 43.03125 -48.515625 45.710938 -46.625 47.953125 -44.21875 C 50.191406 -41.820312 51.914062 -39.066406 53.125 -35.953125 C 54.332031 -32.847656 54.9375 -29.5625 54.9375 -26.09375 Z M 15.796875 -31.25 L 42.828125 -31.25 C 42.660156 -33.144531 41.957031 -34.867188 40.71875 -36.421875 C 39.476562 -37.972656 37.875 -39.222656 35.90625 -40.171875 C 33.945312 -41.117188 31.804688 -41.59375 29.484375 -41.59375 C 27.484375 -41.59375 25.566406 -41.222656 23.734375 -40.484375 C 21.910156 -39.753906 20.300781 -38.628906 18.90625 -37.109375 C 17.519531 -35.585938 16.484375 -33.632812 15.796875 -31.25 Z M 15.796875 -31.25 "/></g></g></g><g fill="#ffffff" fill-opacity="1"><g transform="translate(147.747937, 83.187071)"><g><path d="M 18.84375 17.21875 L 6.96875 17.21875 L 6.96875 -50.4375 L 18.25 -50.4375 L 18.25 -41.9375 C 20.082031 -44.976562 22.519531 -47.398438 25.5625 -49.203125 C 28.601562 -51.003906 31.9375 -51.90625 35.5625 -51.90625 C 39.164062 -51.90625 42.460938 -51.207031 45.453125 -49.8125 C 48.441406 -48.425781 51.03125 -46.515625 53.21875 -44.078125 C 55.414062 -41.640625 57.117188 -38.8125 58.328125 -35.59375 C 59.535156 -32.375 60.140625 -28.914062 60.140625 -25.21875 C 60.140625 -21.519531 59.535156 -18.050781 58.328125 -14.8125 C 57.117188 -11.570312 55.410156 -8.722656 53.203125 -6.265625 C 50.992188 -3.816406 48.410156 -1.90625 45.453125 -0.53125 C 42.492188 0.832031 39.25 1.515625 35.71875 1.515625 C 33.257812 1.515625 30.929688 1.113281 28.734375 0.3125 C 26.546875 -0.488281 24.585938 -1.613281 22.859375 -3.0625 C 21.128906 -4.519531 19.707031 -6.210938 18.59375 -8.140625 L 18.84375 -2.3125 Z M 33.5625 -9.421875 C 36.238281 -9.421875 38.695312 -10.054688 40.9375 -11.328125 C 43.175781 -12.609375 44.972656 -14.429688 46.328125 -16.796875 C 47.691406 -19.171875 48.375 -21.976562 48.375 -25.21875 C 48.375 -28.382812 47.703125 -31.144531 46.359375 -33.5 C 45.015625 -35.851562 43.222656 -37.6875 40.984375 -39 C 38.742188 -40.3125 36.25 -40.96875 33.5 -40.96875 C 31.445312 -40.96875 29.523438 -40.566406 27.734375 -39.765625 C 25.953125 -38.960938 24.382812 -37.835938 23.03125 -36.390625 C 21.675781 -34.953125 20.613281 -33.285156 19.84375 -31.390625 C 19.070312 -29.492188 18.6875 -27.4375 18.6875 -25.21875 C 18.6875 -22.925781 19.078125 -20.816406 19.859375 -18.890625 C 20.648438 -16.960938 21.734375 -15.285156 23.109375 -13.859375 C 24.484375 -12.429688 26.066406 -11.332031 27.859375 -10.5625 C 29.660156 -9.800781 31.5625 -9.421875 33.5625 -9.421875 Z M 33.5625 -9.421875 "/></g></g></g><g fill="#ffffff" fill-opacity="1"><g transform="translate(211.273526, 83.187071)"><g><path d="M 18.84375 0 L 6.96875 0 L 6.96875 -69.078125 L 18.84375 -69.078125 L 18.84375 -48.515625 L 18.546875 -42.875 C 20.109375 -45.625 22.351562 -47.820312 25.28125 -49.46875 C 28.207031 -51.125 31.601562 -51.953125 35.46875 -51.953125 C 42.238281 -51.953125 47.304688 -49.800781 50.671875 -45.5 C 54.046875 -41.195312 55.734375 -35.085938 55.734375 -27.171875 L 55.734375 0 L 43.859375 0 L 43.859375 -26.9375 C 43.859375 -31.9375 42.8125 -35.53125 40.71875 -37.71875 C 38.625 -39.914062 35.78125 -41.015625 32.1875 -41.015625 C 30.445312 -41.015625 28.773438 -40.644531 27.171875 -39.90625 C 25.578125 -39.164062 24.148438 -38.125 22.890625 -36.78125 C 21.628906 -35.445312 20.640625 -33.835938 19.921875 -31.953125 C 19.203125 -30.078125 18.84375 -28.007812 18.84375 -25.75 Z M 18.84375 0 "/></g></g></g><g fill="#ffffff" fill-opacity="1"><g transform="translate(273.572747, 83.187071)"><g><path d="M 12.796875 -58.28125 C 10.515625 -58.28125 8.726562 -58.941406 7.4375 -60.265625 C 6.144531 -61.585938 5.5 -63.195312 5.5 -65.09375 C 5.5 -66.925781 6.144531 -68.515625 7.4375 -69.859375 C 8.726562 -71.203125 10.535156 -71.875 12.859375 -71.875 C 15.242188 -71.875 17.082031 -71.203125 18.375 -69.859375 C 19.664062 -68.515625 20.3125 -66.925781 20.3125 -65.09375 C 20.3125 -63.195312 19.664062 -61.585938 18.375 -60.265625 C 17.082031 -58.941406 15.222656 -58.28125 12.796875 -58.28125 Z M 18.84375 0 L 6.96875 0 L 6.96875 -50.4375 L 18.84375 -50.4375 Z M 18.84375 0 "/></g></g></g><g fill="#ffffff" fill-opacity="1"><g transform="translate(299.326373, 83.187071)"><g><path d="M 27.125 1.515625 C 23.726562 1.515625 20.582031 0.832031 17.6875 -0.53125 C 14.789062 -1.90625 12.269531 -3.816406 10.125 -6.265625 C 7.988281 -8.722656 6.332031 -11.570312 5.15625 -14.8125 C 3.976562 -18.050781 3.390625 -21.519531 3.390625 -25.21875 C 3.390625 -28.914062 3.984375 -32.375 5.171875 -35.59375 C 6.367188 -38.8125 8.035156 -41.644531 10.171875 -44.09375 C 12.316406 -46.550781 14.828125 -48.472656 17.703125 -49.859375 C 20.585938 -51.253906 23.710938 -51.953125 27.078125 -51.953125 C 31.203125 -51.953125 34.863281 -51.0625 38.0625 -49.28125 C 41.269531 -47.5 43.675781 -45.035156 45.28125 -41.890625 L 45.28125 -50.4375 L 56.5625 -50.4375 L 56.5625 0 L 45.28125 0 L 45.28125 -8.484375 C 43.644531 -5.347656 41.234375 -2.894531 38.046875 -1.125 C 34.859375 0.632812 31.21875 1.515625 27.125 1.515625 Z M 29.96875 -9.46875 C 32.03125 -9.46875 33.957031 -9.867188 35.75 -10.671875 C 37.550781 -11.472656 39.128906 -12.582031 40.484375 -14 C 41.847656 -15.425781 42.90625 -17.09375 43.65625 -19 C 44.40625 -20.914062 44.78125 -22.988281 44.78125 -25.21875 C 44.78125 -27.40625 44.394531 -29.453125 43.625 -31.359375 C 42.863281 -33.273438 41.8125 -34.953125 40.46875 -36.390625 C 39.125 -37.835938 37.550781 -38.960938 35.75 -39.765625 C 33.957031 -40.566406 32.03125 -40.96875 29.96875 -40.96875 C 27.257812 -40.96875 24.785156 -40.3125 22.546875 -39 C 20.304688 -37.6875 18.515625 -35.851562 17.171875 -33.5 C 15.828125 -31.144531 15.15625 -28.382812 15.15625 -25.21875 C 15.15625 -21.945312 15.832031 -19.132812 17.1875 -16.78125 C 18.550781 -14.425781 20.359375 -12.617188 22.609375 -11.359375 C 24.867188 -10.097656 27.320312 -9.46875 29.96875 -9.46875 Z M 29.96875 -9.46875 "/></g></g></g><g clip-path="url(#2867bea0eb)"><path fill="#ffa500" d="M 367.816406 27.3125 L 370.980469 27.3125 L 370.980469 3.335938 L 347.003906 3.335938 L 347.003906 6.5 C 356.996094 9.441406 364.875 17.320312 367.816406 27.3125 Z M 367.816406 27.3125 " fill-opacity="1" fill-rule="nonzero"/></g></svg>