<svg xmlns="http://www.w3.org/2000/svg" xmlns:xlink="http://www.w3.org/1999/xlink" width="500" zoomAndPan="magnify" viewBox="0 0 375 112.499997" height="150" preserveAspectRatio="xMidYMid meet" version="1.0"><defs><g/><clipPath id="fdfe5e30f2"><path d="M 339.355469 2.679688 L 371.464844 2.679688 L 371.464844 34.785156 L 339.355469 34.785156 Z M 339.355469 2.679688 " clip-rule="nonzero"/></clipPath></defs><g fill="#ffffff" fill-opacity="1"><g transform="translate(-2.072929, 96.108864)"><g><path d="M 35.921875 2.015625 C 31.421875 2.015625 27.253906 1.109375 23.421875 -0.703125 C 19.585938 -2.523438 16.25 -5.0625 13.40625 -8.3125 C 10.570312 -11.5625 8.375 -15.328125 6.8125 -19.609375 C 5.257812 -23.898438 4.484375 -28.492188 4.484375 -33.390625 C 4.484375 -38.285156 5.269531 -42.863281 6.84375 -47.125 C 8.425781 -51.394531 10.632812 -55.15625 13.46875 -58.40625 C 16.3125 -61.65625 19.640625 -64.203125 23.453125 -66.046875 C 27.265625 -67.890625 31.398438 -68.8125 35.859375 -68.8125 C 41.316406 -68.8125 46.164062 -67.628906 50.40625 -65.265625 C 54.65625 -62.898438 57.84375 -59.640625 59.96875 -55.484375 L 59.96875 -66.796875 L 74.90625 -66.796875 L 74.90625 0 L 59.96875 0 L 59.96875 -11.234375 C 57.800781 -7.078125 54.601562 -3.828125 50.375 -1.484375 C 46.15625 0.847656 41.335938 2.015625 35.921875 2.015625 Z M 39.703125 -12.546875 C 42.429688 -12.546875 44.984375 -13.070312 47.359375 -14.125 C 49.742188 -15.1875 51.832031 -16.660156 53.625 -18.546875 C 55.425781 -20.429688 56.820312 -22.640625 57.8125 -25.171875 C 58.8125 -27.710938 59.3125 -30.453125 59.3125 -33.390625 C 59.3125 -36.296875 58.800781 -39.015625 57.78125 -41.546875 C 56.769531 -44.078125 55.375 -46.296875 53.59375 -48.203125 C 51.820312 -50.109375 49.742188 -51.59375 47.359375 -52.65625 C 44.984375 -53.71875 42.429688 -54.25 39.703125 -54.25 C 36.109375 -54.25 32.828125 -53.378906 29.859375 -51.640625 C 26.890625 -49.910156 24.515625 -47.488281 22.734375 -44.375 C 20.960938 -41.257812 20.078125 -37.597656 20.078125 -33.390625 C 20.078125 -29.054688 20.972656 -25.332031 22.765625 -22.21875 C 24.566406 -19.101562 26.960938 -16.710938 29.953125 -15.046875 C 32.941406 -13.378906 36.191406 -12.546875 39.703125 -12.546875 Z M 39.703125 -12.546875 "/></g></g></g><g fill="#ffffff" fill-opacity="1"><g transform="translate(82.056635, 96.108864)"><g><path d="M 24.953125 0 L 9.21875 0 L 9.21875 -91.546875 L 24.953125 -91.546875 Z M 24.953125 0 "/></g></g></g><g fill="#ffffff" fill-opacity="1"><g transform="translate(116.163215, 96.108864)"><g><path d="M 72.765625 -34.5625 C 72.765625 -33.738281 72.742188 -32.957031 72.703125 -32.21875 C 72.660156 -31.488281 72.570312 -30.492188 72.4375 -29.234375 L 20.265625 -29.234375 C 20.828125 -25.597656 21.984375 -22.5 23.734375 -19.9375 C 25.492188 -17.382812 27.671875 -15.425781 30.265625 -14.0625 C 32.867188 -12.695312 35.707031 -12.015625 38.78125 -12.015625 C 42.769531 -12.015625 46 -12.804688 48.46875 -14.390625 C 50.9375 -15.972656 52.734375 -18.171875 53.859375 -20.984375 L 71.015625 -20.984375 C 70.191406 -17.992188 68.835938 -15.113281 66.953125 -12.34375 C 65.066406 -9.570312 62.757812 -7.113281 60.03125 -4.96875 C 57.300781 -2.820312 54.171875 -1.125 50.640625 0.125 C 47.109375 1.382812 43.265625 2.015625 39.109375 2.015625 C 34.085938 2.015625 29.460938 1.09375 25.234375 -0.75 C 21.015625 -2.59375 17.351562 -5.132812 14.25 -8.375 C 11.15625 -11.625 8.753906 -15.394531 7.046875 -19.6875 C 5.335938 -23.976562 4.484375 -28.546875 4.484375 -33.390625 C 4.484375 -38.285156 5.335938 -42.863281 7.046875 -47.125 C 8.753906 -51.394531 11.15625 -55.15625 14.25 -58.40625 C 17.351562 -61.65625 21.015625 -64.203125 25.234375 -66.046875 C 29.460938 -67.890625 34.085938 -68.8125 39.109375 -68.8125 C 44.140625 -68.8125 48.722656 -67.898438 52.859375 -66.078125 C 56.992188 -64.253906 60.539062 -61.75 63.5 -58.5625 C 66.46875 -55.382812 68.753906 -51.738281 70.359375 -47.625 C 71.960938 -43.507812 72.765625 -39.15625 72.765625 -34.5625 Z M 20.921875 -41.390625 L 56.71875 -41.390625 C 56.5 -43.898438 55.566406 -46.179688 53.921875 -48.234375 C 52.273438 -50.296875 50.148438 -51.953125 47.546875 -53.203125 C 44.953125 -54.460938 42.117188 -55.09375 39.046875 -55.09375 C 36.398438 -55.09375 33.863281 -54.601562 31.4375 -53.625 C 29.019531 -52.65625 26.890625 -51.160156 25.046875 -49.140625 C 23.203125 -47.128906 21.828125 -44.546875 20.921875 -41.390625 Z M 20.921875 -41.390625 "/></g></g></g><g fill="#ffffff" fill-opacity="1"><g transform="translate(192.496993, 96.108864)"><g><path d="M 30.21875 0 L 14.484375 0 L 14.484375 -53.34375 L 1.171875 -53.34375 L 1.171875 -66.796875 L 14.484375 -66.796875 L 14.484375 -70.625 C 14.484375 -73.175781 14.863281 -75.726562 15.625 -78.28125 C 16.382812 -80.84375 17.578125 -83.179688 19.203125 -85.296875 C 20.828125 -87.421875 22.957031 -89.125 25.59375 -90.40625 C 28.238281 -91.6875 31.445312 -92.328125 35.21875 -92.328125 L 48.015625 -92.328125 L 48.015625 -79.265625 L 39.171875 -79.265625 C 37.222656 -79.265625 35.585938 -78.804688 34.265625 -77.890625 C 32.953125 -76.984375 31.945312 -75.78125 31.25 -74.28125 C 30.5625 -72.789062 30.21875 -71.160156 30.21875 -69.390625 L 30.21875 -66.796875 L 47.6875 -66.796875 L 47.6875 -53.34375 L 30.21875 -53.34375 Z M 30.21875 0 "/></g></g></g><g fill="#ffffff" fill-opacity="1"><g transform="translate(241.220679, 96.108864)"><g><path d="M 16.953125 -77.1875 C 13.921875 -77.1875 11.550781 -78.0625 9.84375 -79.8125 C 8.132812 -81.570312 7.28125 -83.707031 7.28125 -86.21875 C 7.28125 -88.644531 8.132812 -90.742188 9.84375 -92.515625 C 11.550781 -94.296875 13.941406 -95.1875 17.015625 -95.1875 C 20.179688 -95.1875 22.617188 -94.296875 24.328125 -92.515625 C 26.035156 -90.742188 26.890625 -88.644531 26.890625 -86.21875 C 26.890625 -83.707031 26.035156 -81.570312 24.328125 -79.8125 C 22.617188 -78.0625 20.160156 -77.1875 16.953125 -77.1875 Z M 24.953125 0 L 9.21875 0 L 9.21875 -66.796875 L 24.953125 -66.796875 Z M 24.953125 0 "/></g></g></g><g fill="#ffffff" fill-opacity="1"><g transform="translate(275.32726, 96.108864)"><g><path d="M 35.921875 2.015625 C 31.421875 2.015625 27.253906 1.109375 23.421875 -0.703125 C 19.585938 -2.523438 16.25 -5.0625 13.40625 -8.3125 C 10.570312 -11.5625 8.375 -15.328125 6.8125 -19.609375 C 5.257812 -23.898438 4.484375 -28.492188 4.484375 -33.390625 C 4.484375 -38.285156 5.269531 -42.863281 6.84375 -47.125 C 8.425781 -51.394531 10.632812 -55.15625 13.46875 -58.40625 C 16.3125 -61.65625 19.640625 -64.203125 23.453125 -66.046875 C 27.265625 -67.890625 31.398438 -68.8125 35.859375 -68.8125 C 41.316406 -68.8125 46.164062 -67.628906 50.40625 -65.265625 C 54.65625 -62.898438 57.84375 -59.640625 59.96875 -55.484375 L 59.96875 -66.796875 L 74.90625 -66.796875 L 74.90625 0 L 59.96875 0 L 59.96875 -11.234375 C 57.800781 -7.078125 54.601562 -3.828125 50.375 -1.484375 C 46.15625 0.847656 41.335938 2.015625 35.921875 2.015625 Z M 39.703125 -12.546875 C 42.429688 -12.546875 44.984375 -13.070312 47.359375 -14.125 C 49.742188 -15.1875 51.832031 -16.660156 53.625 -18.546875 C 55.425781 -20.429688 56.820312 -22.640625 57.8125 -25.171875 C 58.8125 -27.710938 59.3125 -30.453125 59.3125 -33.390625 C 59.3125 -36.296875 58.800781 -39.015625 57.78125 -41.546875 C 56.769531 -44.078125 55.375 -46.296875 53.59375 -48.203125 C 51.820312 -50.109375 49.742188 -51.59375 47.359375 -52.65625 C 44.984375 -53.71875 42.429688 -54.25 39.703125 -54.25 C 36.109375 -54.25 32.828125 -53.378906 29.859375 -51.640625 C 26.890625 -49.910156 24.515625 -47.488281 22.734375 -44.375 C 20.960938 -41.257812 20.078125 -37.597656 20.078125 -33.390625 C 20.078125 -29.054688 20.972656 -25.332031 22.765625 -22.21875 C 24.566406 -19.101562 26.960938 -16.710938 29.953125 -15.046875 C 32.941406 -13.378906 36.191406 -12.546875 39.703125 -12.546875 Z M 39.703125 -12.546875 "/></g></g></g><g clip-path="url(#fdfe5e30f2)"><path fill="#ffa500" d="M 367.273438 34.4375 L 371.464844 34.4375 L 371.464844 2.679688 L 339.707031 2.679688 L 339.707031 6.871094 C 352.941406 10.761719 363.378906 21.199219 367.273438 34.4375 Z M 367.273438 34.4375 " fill-opacity="1" fill-rule="nonzero"/></g></svg>