<svg xmlns="http://www.w3.org/2000/svg" xmlns:xlink="http://www.w3.org/1999/xlink" width="500" zoomAndPan="magnify" viewBox="0 0 375 112.499997" height="150" preserveAspectRatio="xMidYMid meet" version="1.0"><defs><g/><clipPath id="94942f18e6"><path d="M 347.085938 3.335938 L 370.980469 3.335938 L 370.980469 27.230469 L 347.085938 27.230469 Z M 347.085938 3.335938 " clip-rule="nonzero"/></clipPath></defs><g fill="#10118b" fill-opacity="1"><g transform="translate(0.829651, 79.344045)"><g><path d="M 27.125 1.515625 C 23.71875 1.515625 20.566406 0.832031 17.671875 -0.53125 C 14.785156 -1.90625 12.269531 -3.816406 10.125 -6.265625 C 7.988281 -8.722656 6.332031 -11.570312 5.15625 -14.8125 C 3.976562 -18.050781 3.390625 -21.519531 3.390625 -25.21875 C 3.390625 -28.90625 3.984375 -32.359375 5.171875 -35.578125 C 6.367188 -38.804688 8.035156 -41.644531 10.171875 -44.09375 C 12.316406 -46.550781 14.828125 -48.472656 17.703125 -49.859375 C 20.578125 -51.242188 23.703125 -51.9375 27.078125 -51.9375 C 31.191406 -51.9375 34.851562 -51.046875 38.0625 -49.265625 C 41.269531 -47.484375 43.671875 -45.023438 45.265625 -41.890625 L 45.265625 -50.421875 L 56.546875 -50.421875 L 56.546875 0 L 45.265625 0 L 45.265625 -8.484375 C 43.628906 -5.347656 41.21875 -2.894531 38.03125 -1.125 C 34.84375 0.632812 31.207031 1.515625 27.125 1.515625 Z M 29.96875 -9.46875 C 32.03125 -9.46875 33.957031 -9.867188 35.75 -10.671875 C 37.550781 -11.472656 39.128906 -12.582031 40.484375 -14 C 41.847656 -15.425781 42.90625 -17.09375 43.65625 -19 C 44.40625 -20.914062 44.78125 -22.988281 44.78125 -25.21875 C 44.78125 -27.40625 44.394531 -29.453125 43.625 -31.359375 C 42.863281 -33.273438 41.8125 -34.953125 40.46875 -36.390625 C 39.125 -37.828125 37.550781 -38.945312 35.75 -39.75 C 33.957031 -40.550781 32.03125 -40.953125 29.96875 -40.953125 C 27.25 -40.953125 24.769531 -40.296875 22.53125 -38.984375 C 20.289062 -37.679688 18.5 -35.851562 17.15625 -33.5 C 15.820312 -31.144531 15.15625 -28.382812 15.15625 -25.21875 C 15.15625 -21.945312 15.832031 -19.132812 17.1875 -16.78125 C 18.550781 -14.425781 20.359375 -12.617188 22.609375 -11.359375 C 24.867188 -10.097656 27.320312 -9.46875 29.96875 -9.46875 Z M 29.96875 -9.46875 "/></g></g></g><g fill="#10118b" fill-opacity="1"><g transform="translate(64.33679, 79.344045)"><g><path d="M 18.828125 0 L 6.96875 0 L 6.96875 -69.109375 L 18.828125 -69.109375 Z M 18.828125 0 "/></g></g></g><g fill="#10118b" fill-opacity="1"><g transform="translate(90.082928, 79.344045)"><g><path d="M 54.9375 -26.09375 C 54.9375 -25.46875 54.921875 -24.878906 54.890625 -24.328125 C 54.859375 -23.773438 54.789062 -23.023438 54.6875 -22.078125 L 15.296875 -22.078125 C 15.722656 -19.328125 16.597656 -16.988281 17.921875 -15.0625 C 19.242188 -13.132812 20.882812 -11.65625 22.84375 -10.625 C 24.8125 -9.59375 26.957031 -9.078125 29.28125 -9.078125 C 32.289062 -9.078125 34.726562 -9.671875 36.59375 -10.859375 C 38.457031 -12.054688 39.8125 -13.71875 40.65625 -15.84375 L 53.609375 -15.84375 C 52.984375 -13.582031 51.957031 -11.40625 50.53125 -9.3125 C 49.113281 -7.226562 47.375 -5.375 45.3125 -3.75 C 43.257812 -2.132812 40.898438 -0.851562 38.234375 0.09375 C 35.566406 1.039062 32.664062 1.515625 29.53125 1.515625 C 25.738281 1.515625 22.242188 0.820312 19.046875 -0.5625 C 15.859375 -1.957031 13.097656 -3.878906 10.765625 -6.328125 C 8.429688 -8.773438 6.617188 -11.617188 5.328125 -14.859375 C 4.035156 -18.097656 3.390625 -21.550781 3.390625 -25.21875 C 3.390625 -28.90625 4.035156 -32.359375 5.328125 -35.578125 C 6.617188 -38.804688 8.429688 -41.644531 10.765625 -44.09375 C 13.097656 -46.550781 15.859375 -48.472656 19.046875 -49.859375 C 22.242188 -51.242188 25.738281 -51.9375 29.53125 -51.9375 C 33.320312 -51.9375 36.773438 -51.25 39.890625 -49.875 C 43.015625 -48.507812 45.695312 -46.625 47.9375 -44.21875 C 50.1875 -41.8125 51.914062 -39.054688 53.125 -35.953125 C 54.332031 -32.847656 54.9375 -29.5625 54.9375 -26.09375 Z M 15.796875 -31.25 L 42.8125 -31.25 C 42.65625 -33.144531 41.953125 -34.867188 40.703125 -36.421875 C 39.460938 -37.972656 37.863281 -39.222656 35.90625 -40.171875 C 33.945312 -41.117188 31.804688 -41.59375 29.484375 -41.59375 C 27.484375 -41.59375 25.566406 -41.222656 23.734375 -40.484375 C 21.910156 -39.753906 20.300781 -38.628906 18.90625 -37.109375 C 17.519531 -35.585938 16.484375 -33.632812 15.796875 -31.25 Z M 15.796875 -31.25 "/></g></g></g><g fill="#10118b" fill-opacity="1"><g transform="translate(147.705237, 79.344045)"><g><path d="M 18.828125 17.21875 L 6.96875 17.21875 L 6.96875 -50.421875 L 18.25 -50.421875 L 18.25 -41.9375 C 20.082031 -44.976562 22.515625 -47.394531 25.546875 -49.1875 C 28.585938 -50.988281 31.925781 -51.890625 35.5625 -51.890625 C 39.15625 -51.890625 42.445312 -51.191406 45.4375 -49.796875 C 48.4375 -48.410156 51.03125 -46.5 53.21875 -44.0625 C 55.40625 -41.632812 57.101562 -38.804688 58.3125 -35.578125 C 59.53125 -32.359375 60.140625 -28.90625 60.140625 -25.21875 C 60.140625 -21.519531 59.53125 -18.050781 58.3125 -14.8125 C 57.101562 -11.570312 55.394531 -8.722656 53.1875 -6.265625 C 50.988281 -3.816406 48.40625 -1.90625 45.4375 -0.53125 C 42.476562 0.832031 39.234375 1.515625 35.703125 1.515625 C 33.253906 1.515625 30.929688 1.113281 28.734375 0.3125 C 26.546875 -0.488281 24.582031 -1.613281 22.84375 -3.0625 C 21.113281 -4.519531 19.695312 -6.210938 18.59375 -8.140625 L 18.828125 -2.3125 Z M 33.546875 -9.421875 C 36.234375 -9.421875 38.695312 -10.054688 40.9375 -11.328125 C 43.175781 -12.609375 44.972656 -14.429688 46.328125 -16.796875 C 47.679688 -19.171875 48.359375 -21.976562 48.359375 -25.21875 C 48.359375 -28.382812 47.6875 -31.144531 46.34375 -33.5 C 45.007812 -35.851562 43.222656 -37.679688 40.984375 -38.984375 C 38.742188 -40.296875 36.25 -40.953125 33.5 -40.953125 C 31.4375 -40.953125 29.515625 -40.550781 27.734375 -39.75 C 25.953125 -38.945312 24.382812 -37.828125 23.03125 -36.390625 C 21.675781 -34.953125 20.613281 -33.285156 19.84375 -31.390625 C 19.070312 -29.492188 18.6875 -27.4375 18.6875 -25.21875 C 18.6875 -22.925781 19.078125 -20.8125 19.859375 -18.875 C 20.648438 -16.945312 21.726562 -15.269531 23.09375 -13.84375 C 24.46875 -12.425781 26.054688 -11.332031 27.859375 -10.5625 C 29.660156 -9.800781 31.554688 -9.421875 33.546875 -9.421875 Z M 33.546875 -9.421875 "/></g></g></g><g fill="#10118b" fill-opacity="1"><g transform="translate(211.212376, 79.344045)"><g><path d="M 18.828125 0 L 6.96875 0 L 6.96875 -69.0625 L 18.828125 -69.0625 L 18.828125 -48.515625 L 18.546875 -42.875 C 20.109375 -45.613281 22.351562 -47.804688 25.28125 -49.453125 C 28.207031 -51.109375 31.601562 -51.9375 35.46875 -51.9375 C 42.226562 -51.9375 47.289062 -49.785156 50.65625 -45.484375 C 54.03125 -41.191406 55.71875 -35.085938 55.71875 -27.171875 L 55.71875 0 L 43.84375 0 L 43.84375 -26.921875 C 43.84375 -31.929688 42.796875 -35.53125 40.703125 -37.71875 C 38.617188 -39.90625 35.773438 -41 32.171875 -41 C 30.441406 -41 28.773438 -40.628906 27.171875 -39.890625 C 25.566406 -39.160156 24.132812 -38.125 22.875 -36.78125 C 21.625 -35.445312 20.632812 -33.835938 19.90625 -31.953125 C 19.1875 -30.078125 18.828125 -28.007812 18.828125 -25.75 Z M 18.828125 0 "/></g></g></g><g fill="#10118b" fill-opacity="1"><g transform="translate(273.49351, 79.344045)"><g><path d="M 12.796875 -58.265625 C 10.515625 -58.265625 8.726562 -58.925781 7.4375 -60.25 C 6.144531 -61.582031 5.5 -63.195312 5.5 -65.09375 C 5.5 -66.914062 6.144531 -68.5 7.4375 -69.84375 C 8.726562 -71.1875 10.53125 -71.859375 12.84375 -71.859375 C 15.238281 -71.859375 17.082031 -71.1875 18.375 -69.84375 C 19.664062 -68.5 20.3125 -66.914062 20.3125 -65.09375 C 20.3125 -63.195312 19.664062 -61.582031 18.375 -60.25 C 17.082031 -58.925781 15.222656 -58.265625 12.796875 -58.265625 Z M 18.828125 0 L 6.96875 0 L 6.96875 -50.421875 L 18.828125 -50.421875 Z M 18.828125 0 "/></g></g></g><g fill="#10118b" fill-opacity="1"><g transform="translate(299.239648, 79.344045)"><g><path d="M 27.125 1.515625 C 23.71875 1.515625 20.566406 0.832031 17.671875 -0.53125 C 14.785156 -1.90625 12.269531 -3.816406 10.125 -6.265625 C 7.988281 -8.722656 6.332031 -11.570312 5.15625 -14.8125 C 3.976562 -18.050781 3.390625 -21.519531 3.390625 -25.21875 C 3.390625 -28.90625 3.984375 -32.359375 5.171875 -35.578125 C 6.367188 -38.804688 8.035156 -41.644531 10.171875 -44.09375 C 12.316406 -46.550781 14.828125 -48.472656 17.703125 -49.859375 C 20.578125 -51.242188 23.703125 -51.9375 27.078125 -51.9375 C 31.191406 -51.9375 34.851562 -51.046875 38.0625 -49.265625 C 41.269531 -47.484375 43.671875 -45.023438 45.265625 -41.890625 L 45.265625 -50.421875 L 56.546875 -50.421875 L 56.546875 0 L 45.265625 0 L 45.265625 -8.484375 C 43.628906 -5.347656 41.21875 -2.894531 38.03125 -1.125 C 34.84375 0.632812 31.207031 1.515625 27.125 1.515625 Z M 29.96875 -9.46875 C 32.03125 -9.46875 33.957031 -9.867188 35.75 -10.671875 C 37.550781 -11.472656 39.128906 -12.582031 40.484375 -14 C 41.847656 -15.425781 42.90625 -17.09375 43.65625 -19 C 44.40625 -20.914062 44.78125 -22.988281 44.78125 -25.21875 C 44.78125 -27.40625 44.394531 -29.453125 43.625 -31.359375 C 42.863281 -33.273438 41.8125 -34.953125 40.46875 -36.390625 C 39.125 -37.828125 37.550781 -38.945312 35.75 -39.75 C 33.957031 -40.550781 32.03125 -40.953125 29.96875 -40.953125 C 27.25 -40.953125 24.769531 -40.296875 22.53125 -38.984375 C 20.289062 -37.679688 18.5 -35.851562 17.15625 -33.5 C 15.820312 -31.144531 15.15625 -28.382812 15.15625 -25.21875 C 15.15625 -21.945312 15.832031 -19.132812 17.1875 -16.78125 C 18.550781 -14.425781 20.359375 -12.617188 22.609375 -11.359375 C 24.867188 -10.097656 27.320312 -9.46875 29.96875 -9.46875 Z M 29.96875 -9.46875 "/></g></g></g><g clip-path="url(#94942f18e6)"><path fill="#ffa500" d="M 367.816406 27.3125 L 370.980469 27.3125 L 370.980469 3.335938 L 347.003906 3.335938 L 347.003906 6.5 C 356.996094 9.441406 364.875 17.320312 367.816406 27.3125 Z M 367.816406 27.3125 " fill-opacity="1" fill-rule="nonzero"/></g></svg>