<svg xmlns="http://www.w3.org/2000/svg" xmlns:xlink="http://www.w3.org/1999/xlink" width="48" zoomAndPan="magnify" viewBox="0 0 36 36.000001" height="48" preserveAspectRatio="xMidYMid meet" version="1.0"><defs><g/><clipPath id="12f71807d1"><path d="M 23.25 3.503906 L 32.007812 3.503906 L 32.007812 12.257812 L 23.25 12.257812 Z M 23.25 3.503906 " clip-rule="nonzero"/></clipPath></defs><g fill="#10118b" fill-opacity="1"><g transform="translate(2.423673, 27.776576)"><g><path d="M 4.140625 -18.875 C 3.398438 -18.875 2.820312 -19.085938 2.40625 -19.515625 C 1.988281 -19.953125 1.78125 -20.476562 1.78125 -21.09375 C 1.78125 -21.6875 1.988281 -22.195312 2.40625 -22.625 C 2.820312 -23.0625 3.40625 -23.28125 4.15625 -23.28125 C 4.9375 -23.28125 5.535156 -23.0625 5.953125 -22.625 C 6.367188 -22.195312 6.578125 -21.6875 6.578125 -21.09375 C 6.578125 -20.476562 6.367188 -19.953125 5.953125 -19.515625 C 5.535156 -19.085938 4.929688 -18.875 4.140625 -18.875 Z M 6.109375 0 L 2.25 0 L 2.25 -16.34375 L 6.109375 -16.34375 Z M 6.109375 0 "/></g></g></g><g fill="#10118b" fill-opacity="1"><g transform="translate(10.764475, 27.776576)"><g><path d="M 8.78125 0.5 C 7.6875 0.5 6.671875 0.273438 5.734375 -0.171875 C 4.796875 -0.617188 3.976562 -1.238281 3.28125 -2.03125 C 2.582031 -2.820312 2.039062 -3.742188 1.65625 -4.796875 C 1.28125 -5.847656 1.09375 -6.972656 1.09375 -8.171875 C 1.09375 -9.367188 1.285156 -10.488281 1.671875 -11.53125 C 2.054688 -12.570312 2.597656 -13.488281 3.296875 -14.28125 C 3.992188 -15.082031 4.804688 -15.707031 5.734375 -16.15625 C 6.671875 -16.601562 7.679688 -16.828125 8.765625 -16.828125 C 10.109375 -16.828125 11.296875 -16.535156 12.328125 -15.953125 C 13.367188 -15.378906 14.148438 -14.585938 14.671875 -13.578125 L 14.671875 -16.34375 L 18.328125 -16.34375 L 18.328125 0 L 14.671875 0 L 14.671875 -2.75 C 14.140625 -1.726562 13.359375 -0.929688 12.328125 -0.359375 C 11.296875 0.210938 10.113281 0.5 8.78125 0.5 Z M 9.703125 -3.0625 C 10.378906 -3.0625 11.003906 -3.191406 11.578125 -3.453125 C 12.160156 -3.710938 12.671875 -4.070312 13.109375 -4.53125 C 13.554688 -5 13.898438 -5.539062 14.140625 -6.15625 C 14.390625 -6.78125 14.515625 -7.453125 14.515625 -8.171875 C 14.515625 -8.878906 14.390625 -9.539062 14.140625 -10.15625 C 13.890625 -10.78125 13.546875 -11.320312 13.109375 -11.78125 C 12.671875 -12.25 12.160156 -12.613281 11.578125 -12.875 C 11.003906 -13.132812 10.378906 -13.265625 9.703125 -13.265625 C 8.828125 -13.265625 8.023438 -13.050781 7.296875 -12.625 C 6.578125 -12.207031 6 -11.613281 5.5625 -10.84375 C 5.125 -10.082031 4.90625 -9.191406 4.90625 -8.171875 C 4.90625 -7.109375 5.125 -6.195312 5.5625 -5.4375 C 6.007812 -4.675781 6.597656 -4.085938 7.328125 -3.671875 C 8.054688 -3.265625 8.847656 -3.0625 9.703125 -3.0625 Z M 9.703125 -3.0625 "/></g></g></g><g clip-path="url(#12f71807d1)"><path fill="#ffa500" d="M 30.863281 12.167969 L 32.007812 12.167969 L 32.007812 3.503906 L 23.339844 3.503906 L 23.339844 4.644531 C 26.953125 5.707031 29.800781 8.554688 30.863281 12.167969 Z M 30.863281 12.167969 " fill-opacity="1" fill-rule="nonzero"/></g></svg>